_________________________  Visit us at _________________________
  
http://p2pdl.com  ____________________________  http://p2pdl.com



The Trouble With Bliss 2011 BRRip 720p x264 AAC - PRiSTiNE


Genre: Comedy | Drama
Plot: A guy in his mid-thirties watches as his life comically 
unravels after he enters into a relationship with the daughter 
of a former high school classmate.
Director: Michael Knowles
Stars: Michael C. Hall, Brie Larson, Peter Fonda
Rated: Rated PG-13 for sexual content, partial nudity and a brief violent image

Info: 
http://www.imdb.com/title/tt1483756/

General
Complete name                  : The Trouble With Bliss 2011 BRRip 720p x264 AAC - PRiSTiNE.mp4
Format                         : MPEG-4
Format profile                 : Base Media
Codec ID                       : isom
File size                      : 626 MiB
Duration                       : 1h 36mn
Overall bit rate mode          : Variable
Overall bit rate               : 904 Kbps

Video
Format                         : AVC
Format/Info                    : Advanced Video Codec
Format profile                 : High 10@L4.1
Bit rate                       : 822 Kbps
Width                          : 1 280 pixels
Height                         : 720 pixels
Display aspect ratio           : 16:9
Frame rate mode                : Constant
Frame rate                     : 23.976 fps
Color space                    : YUV
Chroma subsampling             : 4:2:0
Bit depth                      : 10 bits
Scan type                      : Progressive
Stream size                    : 568 MiB (91%)
Writing library                : x264 core 130 r2273 b3065e6

Audio
Format                         : AAC
Bit rate mode                  : Variable
Bit rate                       : 80.0 Kbps
Channel(s)                     : 2 channels
Channel positions              : Front: L R
Sampling rate                  : 48.0 KHz / 24.0 KHz
Stream size                    : 55.4 MiB (9%)
Language                       : English

Subtitle                       : Yes (English)
Source                         : 720p.BluRay.x264-THUGLiNE (Thanks)

Screens:
 
http://www.ultraimg.com/images/fwZHP.jpg 
http://www.ultraimg.com/images/EVCmz.jpg 
http://www.ultraimg.com/images/1FQsr.jpg

----------------------------------------------------------------------------------------------------


Encoded using revolutionary 10bit encoding, which enables us to provide you more crispier 
and sharper images at small sizes, just make sure you follow our instructions without a fault.
Recommend to you to use latest version of VLC player. Install K-Lite Codec Pack or shark007 codecs
in case of any kind of problem in playback (For non-VLC Media Player users). Alternatively, install
Core AVC codecs, the fastest decoder that there is coupled with Community Center Codec Pack and play
on Windows Media Player Classic. Check sample to be sure.
Enjoy!

Encoder Notes:Looking For Early Access To Anything You Can Provide DVDScr, R5, DVDR, BluRay, Direct
Audio, Music Releases and Seedboxes. We require dedicated servers, so as to do more 
and fast releases of movies.
If You Got anything to offer please contact us at "prg@hush.com".

Face book Fan Page:   
http://www.fb.me/p2pdl